<?xml version="1.0" encoding="UTF-8"?>
<svg enable-background="new 0 0 53 53" version="1.1" viewBox="0 0 53 53" xml:space="preserve" xmlns="http://www.w3.org/2000/svg">
<path d="m50.455 8c-0.731-4.462-11.174-8-23.955-8s-23.224 3.538-23.955 8h-0.045v37h0.045c0.731 4.461 11.175 8 23.955 8s23.224-3.539 23.955-8h0.045v-37h-0.045z" fill="#424A60"/>
<g fill="#424A60">
	<path d="m26.5 41c-13.255 0-24-3.806-24-8.5v12.5h0.045c0.731 4.461 11.175 8 23.955 8s23.224-3.539 23.955-8h0.045v-12.5c0 4.694-10.745 8.5-24 8.5z"/>
	<path d="M2.5,32v0.5c0-0.168,0.018-0.334,0.045-0.5H2.5z"/>
	<path d="M50.455,32c0.027,0.166,0.045,0.332,0.045,0.5V32H50.455z"/>
</g>
<g fill="#556080">
	<path d="m26.5 29c-13.255 0-24-3.806-24-8.5v12.5h0.045c0.731 4.461 11.175 8 23.955 8s23.224-3.539 23.955-8h0.045v-12.5c0 4.694-10.745 8.5-24 8.5z"/>
	<path d="M2.5,20v0.5c0-0.168,0.018-0.334,0.045-0.5H2.5z"/>
	<path d="M50.455,20c0.027,0.166,0.045,0.332,0.045,0.5V20H50.455z"/>
</g>
<ellipse cx="26.5" cy="8.5" rx="24" ry="8.5" fill="#7FABDA"/>
<g fill="#7383BF">
	<path d="m26.5 17c-13.255 0-24-3.806-24-8.5v12.5h0.045c0.731 4.461 11.175 8 23.955 8s23.224-3.539 23.955-8h0.045v-12.5c0 4.694-10.745 8.5-24 8.5z"/>
	<path d="M2.5,8v0.5c0-0.168,0.018-0.334,0.045-0.5H2.5z"/>
	<path d="M50.455,8C50.482,8.166,50.5,8.332,50.5,8.5V8H50.455z"/>
</g>
</svg>
