<?xml version="1.0" encoding="iso-8859-1"?>
<!-- Generator: Adobe Illustrator 19.0.0, SVG Export Plug-In . SVG Version: 6.00 Build 0)  -->
<svg version="1.1" id="Capa_1" xmlns="http://www.w3.org/2000/svg" xmlns:xlink="http://www.w3.org/1999/xlink" x="0px" y="0px"
	 viewBox="0 0 487.622 487.622" style="enable-background:new 0 0 487.622 487.622;" xml:space="preserve">
<g>
	<g>
		<circle style="fill:#EED26A;" cx="243.811" cy="243.811" r="243.811"/>
		<circle style="fill:#C4E15E;" cx="243.811" cy="243.811" r="243.811"/>
		<path style="fill:#C4E15E;" d="M487.403,253.76L317.096,119.432l-120.46,49.004L140.749,344.87l168.816,133.771
			C409.213,450.797,483.086,361.237,487.403,253.76z"/>
		<path style="opacity:0.37;fill:#B5D24F;enable-background:new    ;" d="M487.403,253.76L317.096,119.432l-213.852,91.379
			l101.315,68l-63.81,66.059l168.816,133.771C409.213,450.797,483.086,361.237,487.403,253.76z"/>
		<path style="fill:#FFFFFF;" d="M241.918,99.45c-68.376,0-125.645,47.537-140.571,111.361h101.315v-30.486l105.153,63.486
			l-105.153,63.486v-28.486H101.835c15.645,62.814,72.424,109.361,140.083,109.361c79.725,0,144.358-64.633,144.358-144.361
			C386.276,164.084,321.643,99.45,241.918,99.45z"/>
	</g>
</g>
<g>
</g>
<g>
</g>
<g>
</g>
<g>
</g>
<g>
</g>
<g>
</g>
<g>
</g>
<g>
</g>
<g>
</g>
<g>
</g>
<g>
</g>
<g>
</g>
<g>
</g>
<g>
</g>
<g>
</g>
</svg>
