<svg xmlns="http://www.w3.org/2000/svg" viewBox="0 0 15.76 15.76"><title>binary_1</title><g id="Layer_2" data-name="Layer 2"><g id="Layer_1-2" data-name="Layer 1"><path d="M0,0V15.76H15.76V0ZM7.54,13.2a.3.3,0,0,1-.46.24L3.19,10.83a.3.3,0,0,1-.13-.24V6.23A.3.3,0,0,1,3.52,6L7.41,8.6a.3.3,0,0,1,.13.25Zm.18-5.32L3.59,5.1a.3.3,0,0,1,0-.5L7.74,2.3A.3.3,0,0,1,8,2.3l4.13,2.3a.3.3,0,0,1,0,.5L8,7.88A.3.3,0,0,1,7.72,7.88Zm5,2.7a.3.3,0,0,1-.13.24L8.68,13.45a.3.3,0,0,1-.46-.24V8.85a.3.3,0,0,1,.13-.25L12.24,6a.3.3,0,0,1,.46.24Z" style="fill:#969696"/></g></g></svg>