<svg xmlns="http://www.w3.org/2000/svg" viewBox="0 0 15.76 15.76">
  <path fill="#f79023" d="M0 0v15.76h15.76V0zm9.3 3.91a3.16 3.16 0 0 0-.75.09.69.69 0 0 0-.32.2.55.55 0 0 0-.12.37v1.7a1.53 1.53 0 0 1-.35 1.09 1.9 1.9 0 0 1-1.15.49v.07a2 2 0 0 1 1.15.49 1.46 1.46 0 0 1 .35 1v1.73a.53.53 0 0 0 .13.38.78.78 0 0 0 .35.2 3.12 3.12 0 0 0 .71.08v1.72a7.15 7.15 0 0 1-1.9-.2 1.76 1.76 0 0 1-1-.64 2.32 2.32 0 0 1-.3-1.32V9.9a.91.91 0 0 0-.28-.69 1.82 1.82 0 0 0-1.23-.39V7a1.83 1.83 0 0 0 1.21-.36 1.16 1.16 0 0 0 .31-.77V4.29A2.25 2.25 0 0 1 6.39 3a1.77 1.77 0 0 1 1-.63 7.23 7.23 0 0 1 1.89-.2z" data-name="Layer 1"/>
</svg>