<svg xmlns="http://www.w3.org/2000/svg" viewBox="0 0 15.76 15.76"><title>pdf</title><g id="Layer_2" data-name="Layer 2"><g id="Layer_1-2" data-name="Layer 1"><path d="M7.47,3a.37.37,0,0,0-.2,0,.55.55,0,0,0-.38.15c-.21.21,0,.6.13.81l.1.15.22.33L7.48,4C7.64,3.53,7.64,3.15,7.47,3Z" style="fill:#af0000"/><path d="M7.36,9.36c.46-.12.9-.22,1.33-.3-.29-.39-.58-.79-.86-1.18Z" style="fill:#af0000"/><path d="M4.46,12c-.21.1-.56.32-.51.62a.42.42,0,0,0,.3.34c.1,0,.27-.13.41-.48s.18-.44.28-.7L4.46,12Z" style="fill:#af0000"/><path d="M0,0V15.76H15.76V0ZM13.48,12.27a1.79,1.79,0,0,1-2.26-.3A14,14,0,0,1,9.74,10.4a18.5,18.5,0,0,0-3,.69c-.27.78-.53,1.48-.75,2a2,2,0,0,1-1.77,1.4H4.07a1.91,1.91,0,0,1-1.6-1.58A2.08,2.08,0,0,1,3.8,10.67h0c.62-.3,1.22-.55,1.79-.76C6,8.73,6.4,7.42,6.76,6.3L5.86,4.93l-.1-.15A2.06,2.06,0,0,1,5.82,2.1a2,2,0,0,1,2.43-.33c.31.19,1.26.93.66,2.73-.12.36-.29.91-.5,1.57.59.87,1.28,1.86,2,2.74.66-.08,1.29-.14,1.9-.19a1.77,1.77,0,0,1,2,1.16A2.22,2.22,0,0,1,13.48,12.27Z" style="fill:#af0000"/><path d="M12.4,10.1l-.87.08a9,9,0,0,0,.67.66s.31.27.42.19a.77.77,0,0,0,.19-.76C12.79,10.2,12.75,10.08,12.4,10.1Z" style="fill:#af0000"/></g></g></svg>