<svg xmlns="http://www.w3.org/2000/svg" viewBox="0 0 15.76 15.76">
  <path fill="#0d6d9c" d="M7.18 8.54h1.21l.23-1.23H7.4zM15.7 0H.06A.06.06 0 0 0 0 .06V15.7a.06.06 0 0 0 .06.06H15.7a.06.06 0 0 0 .06-.06V.06A.06.06 0 0 0 15.7 0zm-3.09 7.25a.06.06 0 0 1-.06.06h-2l-.22 1.23h1.72a.06.06 0 0 1 .06.06v1.73a.06.06 0 0 1-.06.06h-2a.06.06 0 0 0-.06.05l-.52 2.76a.06.06 0 0 1-.06.05H7.59a.06.06 0 0 1-.06-.08L8 10.41H6.82l-.51 2.81a.06.06 0 0 1-.06.05H4.42a.06.06 0 0 1-.06-.08l.5-2.71a.06.06 0 0 0-.06-.08H3.29a.06.06 0 0 1-.06-.06V8.61a.06.06 0 0 1 .06-.06h1.94l.23-1.23H3.78a.06.06 0 0 1-.06-.06V5.47a.06.06 0 0 1 .06-.06h2a.06.06 0 0 0 .06-.05l.51-2.74a.06.06 0 0 1 .06-.05h1.82a.06.06 0 0 1 .06.08l-.53 2.76H9l.52-2.8a.06.06 0 0 1 .06-.05h1.83a.06.06 0 0 1 .06.08l-.51 2.7a.06.06 0 0 0 .06.08h1.54a.06.06 0 0 1 .06.06z" data-name="Layer 1"/>
</svg>