<?xml version="1.0" encoding="iso-8859-1"?>
<!-- Generator: Adobe Illustrator 19.0.0, SVG Export Plug-In . SVG Version: 6.00 Build 0)  -->
<svg version="1.1" id="Layer_1" xmlns="http://www.w3.org/2000/svg" xmlns:xlink="http://www.w3.org/1999/xlink" x="0px" y="0px"
	 viewBox="0 0 440 440" style="enable-background:new 0 0 440 440;" xml:space="preserve">
<g>
	<path d="M420,78.072V60c0-16.5-13.5-30-30-30H240v40h150C400.925,70,411.167,72.949,420,78.072z"/>
	<path d="M340.57,211.141c29.914,0,57.487,10.205,79.43,27.311V130c0-16.5-13.5-30-30-30H210V30c0-16.5-13.5-30-30-30H30
		C13.5,0,0,13.5,0,30v310.57h211.141C211.141,269.202,269.202,211.141,340.57,211.141z"/>
	<path d="M340.57,241.141c-54.825,0-99.43,44.604-99.43,99.43S285.745,440,340.57,440c54.826,0,99.43-44.604,99.43-99.43
		S395.396,241.141,340.57,241.141z M402.071,355.57h-46.5v46.5h-30v-46.5h-46.5v-30h46.5v-46.5h30v46.5h46.5V355.57z"/>
</g>
<g>
</g>
<g>
</g>
<g>
</g>
<g>
</g>
<g>
</g>
<g>
</g>
<g>
</g>
<g>
</g>
<g>
</g>
<g>
</g>
<g>
</g>
<g>
</g>
<g>
</g>
<g>
</g>
<g>
</g>
</svg>
