<svg xmlns="http://www.w3.org/2000/svg" width="16" height="16">
  <path fill="#FFF" fill-rule="evenodd" d="M12.9 6.7c.866.045 1.6.384 2.2 1.017.6.633.9 1.395.9 2.283 0 .912-.328 1.695-.983 2.35-.656.656-1.44.983-2.35.983H4c-1.11 0-2.056-.388-2.833-1.166C.39 11.39 0 10.445 0 9.334 0 8.31.344 7.422 1.034 6.667c.688-.755 1.533-1.19 2.533-1.3C3.99 4.545 4.595 3.89 5.384 3.4c.788-.488 1.66-.733 2.616-.733 1.2 0 2.255.383 3.167 1.15.91.766 1.488 1.728 1.733 2.883zM6.933 8.65H4.666L8 11.98l3.334-3.333H9.067V6.114H6.933V8.65z"/>
</svg>