<svg xmlns="http://www.w3.org/2000/svg" width="12" height="10">
  <path fill="#000" fill-rule="evenodd" d="M10.655 2.793c.233 0 .383.04.45.117.07.077.093.213.074.407l-.35 5.413c-.02.136-.04.237-.06.305-.02.068-.08.13-.18.19-.1.057-.227.087-.38.087H.99c-.23 0-.39-.05-.464-.146C.45 9.07.4 8.924.38 8.73L.005 3.375c-.04-.388.136-.582.524-.582h10.12zm-.116-1.425l.05.96H.58c0-.233.06-.844.18-1.833C.782.32.82.2.878.13c.058-.067.12-.106.19-.115.067-.01.208-.015.42-.015H3.67c.39 0 .613.015.67.044.06.03.196.16.41.392.213.253.377.398.494.437.116.04.35.058.698.058h4.162c.29 0 .437.15.437.44z"/>
</svg>