<svg xmlns="http://www.w3.org/2000/svg" width="10" height="12">
  <path fill-rule="evenodd" d="M8.39 3.565H1.665c-.22 0-.355.027-.41.082-.055.055-.073.164-.055.328l.52 6.618c.035.182.072.296.108.342.036.045.155.068.356.068H7.87c.13 0 .224-.014.288-.04.064-.028.105-.065.123-.11.02-.046.04-.132.06-.26l.52-6.618c.02-.18 0-.295-.05-.34-.05-.047-.19-.07-.41-.07m.85-1.558c-.054-.146-.23-.246-.52-.3L7.27 1.54c-.128-.018-.22-.082-.274-.192-.036-.072-.077-.168-.123-.286-.046-.12-.082-.2-.11-.247-.027-.045-.06-.1-.095-.164-.038-.06-.073-.1-.11-.12C6.523.52 6.48.51 6.423.51H3.606c-.055 0-.1.01-.137.027-.04.02-.08.056-.11.11-.04.055-.07.11-.09.164-.02.06-.05.14-.1.25l-.124.3c-.056.11-.147.177-.275.195l-1.45.19c-.29.056-.464.157-.52.3l-.11.357c-.034.165-.05.256-.04.274.01.02.088.026.234.026h8.26c.053 0 .116-.1.19-.3-.037-.165-.074-.29-.11-.384"/>
</svg>